<svg width="75" height="75" viewBox="0 0 75 75" fill="none" xmlns="http://www.w3.org/2000/svg">
<path d="M12.5 9.375C9.03125 9.375 6.25 12.1562 6.25 15.625V28.125C6.25 31.5938 9.03125 34.375 12.5 34.375H25C28.4688 34.375 31.25 31.5938 31.25 28.125V15.625C31.25 12.1562 28.4688 9.375 25 9.375H12.5ZM25.625 14.0625L28.9375 17.3438L16.4688 29.6875L8.5625 21.7187L11.9062 18.4375L16.5 23.0938L25.625 14.0625ZM12.5 40.625C9.03125 40.625 6.25 43.4062 6.25 46.875V59.375C6.25 62.8438 9.03125 65.625 12.5 65.625H25C28.4688 65.625 31.25 62.8438 31.25 59.375V46.875C31.25 43.4062 28.4688 40.625 25 40.625H12.5ZM12.5 46.875H25V59.375H12.5V46.875ZM37.5 15.625H68.75V21.875H37.5V15.625ZM37.5 59.375V53.125H68.75V59.375H37.5ZM37.5 34.375H68.75V40.625H37.5V34.375Z" fill="black"/>
</svg>
