<svg width="179" height="37" viewBox="0 0 179 37" fill="none" xmlns="http://www.w3.org/2000/svg">
<path fill-rule="evenodd" clip-rule="evenodd" d="M10.672 0H26.7166C30.4283 0 31.7733 0.382333 33.1307 1.10013C34.4707 1.80177 35.567 2.88694 36.2773 4.21471C37.0024 5.5574 37.3886 6.88858 37.3886 10.5606V26.4394C37.3886 30.1114 37.0024 31.4426 36.2773 32.7853C35.5668 34.1132 34.4701 35.1984 33.1299 35.8999C31.7733 36.6177 30.4283 37 26.7174 37H10.672C6.96111 37 5.6153 36.6177 4.25871 35.8999C2.91879 35.1982 1.82247 34.1131 1.11212 32.7853C0.386176 31.4426 0 30.1114 0 26.4394V10.5614C0 6.88858 0.386176 5.5574 1.11212 4.21389C1.8226 2.88643 2.91891 1.80156 4.25871 1.10013C5.6153 0.382333 6.96111 0 10.672 0Z" fill="#0C73FE"/>
<path d="M15.5879 19.8879C15.4206 19.8877 15.26 19.9534 15.1414 20.0705C15.0229 20.1877 14.9561 20.3468 14.9556 20.5128V20.8516C15.0219 22.154 16.0147 23.458 17.7044 23.5863L17.7293 23.5887H18.0624C18.1472 23.5918 18.2318 23.5778 18.311 23.5478C18.3903 23.5177 18.4626 23.472 18.5237 23.4136C18.5847 23.3551 18.6333 23.2851 18.6665 23.2076C18.6997 23.1301 18.7168 23.0468 18.7168 22.9626C18.7168 22.8784 18.6997 22.7951 18.6665 22.7176C18.6333 22.6401 18.5847 22.5701 18.5237 22.5116C18.4626 22.4532 18.3903 22.4076 18.311 22.3775C18.2318 22.3474 18.1472 22.3334 18.0624 22.3365H17.779C16.8078 22.2526 16.2633 21.5307 16.2202 20.803V20.5136C16.2198 20.3476 16.1529 20.1885 16.0344 20.0714C15.9158 19.9542 15.7552 19.8877 15.5879 19.8879Z" fill="white"/>
<path fill-rule="evenodd" clip-rule="evenodd" d="M17.3216 9.77622C14.054 9.91929 11.5273 12.5734 11.3632 15.8072C11.2803 17.4286 11.2165 18.879 11.2165 20.2267C11.2165 21.4838 11.2729 22.7427 11.3466 24.1898C11.5124 27.4063 14.0341 30.0374 17.2868 30.1821C17.779 30.2035 18.2563 30.2167 18.6947 30.2167C19.1464 30.2167 19.6394 30.2027 20.1491 30.1797C23.3794 30.0333 25.892 27.4334 26.052 24.2366C26.1216 22.8446 26.1721 21.6006 26.1721 20.2267C26.1721 18.6916 26.1158 17.2749 26.0404 15.7456C25.8829 12.5389 23.3678 9.92422 20.1276 9.77951C19.65 9.75687 19.172 9.74481 18.6939 9.74333C18.2671 9.74333 17.8014 9.75567 17.3216 9.77622ZM13.1805 16.178C13.3048 13.7138 15.1951 11.701 17.6307 11.59C17.9851 11.5728 18.3399 11.5634 18.6947 11.5621C19.042 11.5621 19.4223 11.5736 19.8135 11.5925C22.2242 11.706 24.102 13.681 24.2189 16.1205C24.2296 16.3524 24.2404 16.5505 24.2495 16.7306C24.2818 17.339 24.3026 17.7386 24.3026 18.565C24.3026 19.3814 24.2802 19.8452 24.2454 20.544C24.2396 20.6559 24.2338 20.7743 24.2288 20.9009C24.1111 23.3306 22.2349 25.2916 19.8342 25.4067C19.4348 25.4264 19.0478 25.4379 18.6947 25.4379C18.3541 25.4379 17.982 25.4264 17.5984 25.4091C15.1777 25.2965 13.2908 23.3059 13.1681 20.8565C13.1598 20.6962 13.1515 20.5498 13.1449 20.4125C13.1093 19.7383 13.0869 19.2877 13.0869 18.565C13.0869 17.871 13.1076 17.4903 13.1408 16.9123C13.1524 16.701 13.1656 16.465 13.1805 16.178Z" fill="white"/>
<path fill-rule="evenodd" clip-rule="evenodd" d="M10.672 2.31291H26.7166C30.2386 2.31291 31.1485 2.67469 32.0286 3.13924C32.9614 3.62555 33.7241 4.38055 34.2163 5.30498C34.6871 6.17571 35.0525 7.07605 35.0525 10.5614V11.1099C35.0515 11.2317 35.0031 11.3485 34.9174 11.4359C34.8317 11.5232 34.7153 11.5743 34.5926 11.5785C34.5147 11.5818 34.4351 11.5851 34.3556 11.5892C32.2241 11.7002 30.5692 13.7138 30.4607 16.1772C30.4491 16.4634 30.4366 16.6985 30.4267 16.9082V16.9115C30.3977 17.4903 30.3786 17.871 30.3786 18.565C30.3786 19.2885 30.3993 19.7383 30.43 20.4117C30.4366 20.5498 30.4433 20.6962 30.4499 20.8557C30.5576 23.3059 32.2084 25.2957 34.3266 25.4091C34.4161 25.4141 34.5056 25.4174 34.5934 25.4215C34.716 25.4259 34.8322 25.4771 34.9177 25.5644C35.0032 25.6517 35.0515 25.7684 35.0525 25.8901V26.4394C35.0525 29.924 34.6871 30.8243 34.2163 31.695C33.7241 32.6195 32.9614 33.3745 32.0286 33.8608C31.1485 34.3261 30.2386 34.6871 26.7166 34.6871H10.672C7.15006 34.6871 6.24014 34.3253 5.36088 33.8608C4.42808 33.3744 3.66541 32.6194 3.17311 31.695C2.7024 30.8243 2.33612 29.924 2.33612 26.4394V25.8901C2.33612 25.6377 2.54163 25.4322 2.79605 25.4215C2.89549 25.4174 2.99742 25.4132 3.10018 25.4067C5.20094 25.2916 6.84261 23.3306 6.94537 20.9009C6.95034 20.7767 6.95531 20.66 6.96028 20.549V20.5432C6.99012 19.8452 7.01 19.3814 7.01 18.565C7.01 17.7386 6.99177 17.339 6.96443 16.7298C6.95614 16.5505 6.94702 16.3524 6.93708 16.1205C6.83515 13.681 5.191 11.706 3.08195 11.5925C2.98668 11.5872 2.89138 11.5826 2.79605 11.5785C2.67342 11.5741 2.55725 11.5229 2.47173 11.4356C2.38621 11.3483 2.33793 11.2316 2.33694 11.1099V10.5606C2.33694 7.07604 2.70157 6.17571 3.17228 5.30498C3.66498 4.38031 4.42826 3.62528 5.36171 3.13924C6.24097 2.67387 7.15171 2.31209 10.6729 2.31209L10.672 2.31291ZM17.2511 8.17536C13.0902 8.35624 9.94776 11.7257 9.74473 15.7266C9.66269 17.3481 9.59639 18.8346 9.59639 20.2267C9.59639 21.5282 9.6544 22.8216 9.72898 24.2704C9.93367 28.2614 13.0769 31.5996 17.2138 31.7838C17.7227 31.806 18.2249 31.82 18.6947 31.82C19.1779 31.82 19.6975 31.8052 20.2229 31.7814C24.3299 31.5947 27.4724 28.2951 27.6704 24.3156C27.74 22.9162 27.7922 21.6409 27.7922 20.2267C27.7922 18.6521 27.7342 17.2058 27.6588 15.6683C27.4632 11.6813 24.3225 8.36282 20.2005 8.17782C19.6992 8.15412 19.1974 8.14151 18.6956 8.14C18.2373 8.14 17.7483 8.15316 17.252 8.17453L17.2511 8.17536Z" fill="white"/>
<path d="M145.455 9.17107C144.751 9.85845 143.698 10.1561 142.312 10.1561C140.929 10.1561 139.847 9.85845 139.164 9.17107C138.461 8.50918 138.14 7.49127 138.14 6.17982V6.01209H140.39V6.17982C140.39 6.88364 140.546 7.33669 140.81 7.58336L140.818 7.59158C141.085 7.86456 141.579 7.99858 142.307 7.99858C143.036 7.99858 143.504 7.86456 143.772 7.59158L143.78 7.58336C144.052 7.33669 144.228 6.87953 144.228 6.17982V6.01209H146.479V6.17982C146.479 7.49538 146.129 8.51329 145.455 9.17107Z" fill="#0C131D"/>
<path fill-rule="evenodd" clip-rule="evenodd" d="M130.755 22.4056C130.973 22.1087 131.122 21.7354 131.224 21.2413L131.258 21.1032H133.874L133.845 21.2956C133.713 22.1424 133.47 22.8668 133.084 23.4531C132.705 24.0615 132.24 24.5384 131.664 24.8985C131.093 25.2587 130.443 25.5062 129.719 25.6698C128.965 25.8334 128.163 25.8877 127.287 25.8877C126.197 25.8877 125.235 25.7783 124.374 25.5316C123.543 25.3276 122.778 24.9183 122.149 24.3419C121.548 23.7803 121.088 23.0304 120.763 22.0997C120.437 21.1911 120.277 20.0474 120.277 18.694C120.277 17.3119 120.433 16.1386 120.759 15.2045C121.079 14.2738 121.54 13.4992 122.141 12.9122L122.145 12.9081C122.741 12.3555 123.478 11.9403 124.342 11.6936H124.346C125.289 11.4566 126.258 11.3384 127.23 11.3417C129.258 11.3417 130.879 11.8614 132.076 12.9122C133.252 13.977 133.841 15.5811 133.841 17.7057V19.6708H122.914C122.931 20.4413 123.054 21.0818 123.243 21.5595C123.423 22.0339 123.724 22.454 124.116 22.7788C124.485 23.0847 124.934 23.2853 125.465 23.3906C126.008 23.495 126.604 23.5501 127.279 23.5501C127.802 23.5501 128.267 23.5246 128.728 23.4448H128.735C129.159 23.3906 129.538 23.2648 129.891 23.0847L129.895 23.0806H129.899C130.237 22.9334 130.504 22.7106 130.755 22.4056ZM124.219 14.4382C123.848 14.7137 123.547 15.096 123.321 15.6058C123.111 16.0794 122.984 16.6747 122.943 17.4369H131.162C131.151 16.7248 131.047 16.155 130.862 15.6822C130.661 15.1667 130.41 14.7893 130.068 14.4876C129.71 14.1997 129.293 13.9911 128.847 13.8758C128.315 13.7573 127.771 13.6956 127.226 13.6916C126.604 13.6916 126.062 13.7459 125.547 13.8512C125.065 13.9452 124.611 14.1464 124.219 14.4382Z" fill="#0C131D"/>
<path d="M152.387 20.9609C152.436 20.4034 152.49 19.6865 152.49 18.782V11.752H163.507V25.4938H160.861V14.0978H155.056V19.1052C155.056 21.2618 154.74 22.8792 154.139 23.9102C153.522 24.9906 152.514 25.4938 151.152 25.4938H150.568V23.0132H150.733C151.062 23.0132 151.321 22.9589 151.523 22.8454L151.531 22.8413L151.535 22.8372C151.724 22.7534 151.914 22.5486 152.061 22.2469C152.206 21.9492 152.308 21.543 152.387 20.9609ZM116.028 20.9231C115.924 21.4674 115.748 21.8991 115.53 22.2255C115.307 22.5498 115.02 22.8252 114.686 23.0346C114.328 23.2377 113.937 23.3753 113.53 23.4407C113.069 23.5205 112.604 23.5452 112.082 23.5452C111.379 23.5452 110.761 23.4909 110.223 23.361C109.667 23.2311 109.223 23.005 108.882 22.6572L108.878 22.653C108.507 22.3011 108.231 21.8193 108.026 21.1952C107.824 20.5753 107.717 19.7374 107.717 18.7023C107.717 17.6424 107.82 16.8005 108.026 16.1262C108.231 15.4726 108.507 14.9653 108.878 14.6175L108.882 14.6134C109.223 14.2656 109.667 14.0353 110.223 13.9095C110.761 13.7796 111.383 13.6999 112.082 13.6999C112.568 13.6999 113.033 13.7508 113.452 13.8051C113.855 13.8849 114.229 14.0107 114.579 14.2113C114.9 14.4127 115.176 14.6676 115.427 14.999C115.649 15.3254 115.825 15.7324 115.924 16.2471L115.949 16.3811H118.598L118.562 16.1838C118.401 15.2876 118.158 14.513 117.775 13.8972C117.417 13.3123 116.946 12.8037 116.389 12.4008L116.386 12.3975C115.799 12.0172 115.148 11.7461 114.464 11.5974C113.683 11.4304 112.885 11.3488 112.086 11.3541C111.106 11.349 110.128 11.4673 109.178 11.706H109.173C108.309 11.9526 107.548 12.3679 106.948 12.9212L106.943 12.9253C106.343 13.5116 105.882 14.2869 105.561 15.2169C105.236 16.1509 105.08 17.3242 105.08 18.7064C105.08 20.0598 105.24 21.2035 105.561 22.1128C105.882 23.0428 106.347 23.7926 106.948 24.3542C107.577 24.9306 108.342 25.3399 109.173 25.544C110.034 25.7906 110.996 25.9 112.086 25.9C112.966 25.9 113.769 25.8202 114.518 25.6566C115.215 25.5065 115.877 25.2251 116.468 24.8278C117.044 24.4381 117.504 23.9398 117.887 23.3026C118.269 22.6859 118.512 21.9114 118.648 20.9856L118.677 20.7932H116.06L116.028 20.9231ZM176.351 20.9231L176.375 20.785V20.7932H179L178.971 20.9856C178.835 21.9114 178.593 22.6868 178.21 23.3026C177.827 23.939 177.367 24.4373 176.791 24.8278C176.219 25.2167 175.569 25.4938 174.841 25.6566C174.092 25.8211 173.289 25.9 172.409 25.9C171.32 25.9 170.357 25.7906 169.496 25.544C168.665 25.3399 167.9 24.9306 167.271 24.3542C166.671 23.7926 166.21 23.0428 165.885 22.1128C165.563 21.2035 165.403 20.0598 165.403 18.7064C165.403 17.3242 165.559 16.1509 165.885 15.2169C166.206 14.2869 166.666 13.5116 167.267 12.9253L167.271 12.9212C167.871 12.3679 168.633 11.9535 169.496 11.706H169.501C170.451 11.4673 171.429 11.3491 172.409 11.3541C173.261 11.3541 174.039 11.4338 174.787 11.5974C175.471 11.7452 176.123 12.0163 176.709 12.3975L176.713 12.4016C177.27 12.8047 177.741 13.313 178.099 13.8972C178.481 14.513 178.724 15.2876 178.885 16.1846L178.922 16.382H176.273L176.248 16.2471C176.17 15.8016 176 15.3767 175.75 14.999C175.519 14.6866 175.231 14.4195 174.902 14.2113C174.552 14.0145 174.171 13.8772 173.775 13.8051C173.321 13.7405 172.864 13.7053 172.405 13.6999C171.706 13.6999 171.085 13.7796 170.546 13.9095C169.99 14.0353 169.546 14.2656 169.205 14.6134L169.201 14.6175C168.83 14.9653 168.554 15.4726 168.349 16.1262C168.143 16.8005 168.04 17.6424 168.04 18.7023C168.04 19.7374 168.147 20.5753 168.349 21.1952C168.554 21.8201 168.83 22.3011 169.201 22.653L169.205 22.6572C169.546 23.005 169.99 23.2311 170.546 23.361C171.085 23.4909 171.702 23.5452 172.405 23.5452C172.928 23.5452 173.393 23.5205 173.854 23.4407C174.285 23.3651 174.66 23.2352 175.01 23.0346C175.33 22.8331 175.601 22.5823 175.853 22.2255C176.071 21.8991 176.248 21.4674 176.351 20.9231Z" fill="#0C131D"/>
<path fill-rule="evenodd" clip-rule="evenodd" d="M101.159 12.506C100.069 11.7265 98.5552 11.35 96.6666 11.35C95.7617 11.35 94.9346 11.4297 94.2352 11.5966C93.5076 11.7611 92.8819 12.0373 92.364 12.4016L92.3599 12.4057C91.8369 12.7995 91.4259 13.2978 91.1002 13.9104C90.7712 14.5254 90.5574 15.2966 90.4505 16.197L90.4298 16.3861H92.9971L93.0179 16.243C93.0957 15.7192 93.2192 15.3139 93.4165 14.9908L93.4247 14.9825C93.5979 14.6553 93.8159 14.4078 94.1076 14.2113C94.4001 14.014 94.7457 13.8849 95.1733 13.8084C95.671 13.7411 96.1726 13.7062 96.6749 13.704C97.9793 13.704 98.8552 13.9424 99.3947 14.3412C99.9168 14.7268 100.197 15.3887 100.197 16.377V17.3242C99.8903 17.3201 99.6102 17.2996 99.3442 17.2815L99.2422 17.2732H99.2257C98.8925 17.2732 98.5552 17.2486 98.2138 17.219H98.1973C98.0207 17.219 97.8475 17.2149 97.6627 17.2066H97.6462C97.4564 17.1984 97.255 17.1943 97.0412 17.1943C96.844 17.1943 96.6418 17.1902 96.4238 17.182H96.3874C96.157 17.1738 95.91 17.1688 95.6465 17.1688C94.5029 17.1688 93.5606 17.3028 92.8289 17.5553H92.8248C92.1005 17.8266 91.5245 18.158 91.1085 18.5855C90.7002 18.9743 90.3963 19.4582 90.2243 19.9932C90.0738 20.4701 90.0002 20.9677 90.0063 21.4674C90.0063 22.2551 90.1132 22.9548 90.3892 23.5246C90.6362 24.0821 90.9933 24.559 91.4665 24.8985C91.9107 25.2636 92.4585 25.5152 93.0792 25.678C93.7048 25.8457 94.3794 25.9 95.1203 25.9C96.2432 25.9 97.2716 25.7076 98.1931 25.2669C99.0711 24.8531 99.7787 24.1519 100.197 23.2812V25.4979H102.842V16.3688C102.838 14.6134 102.27 13.2937 101.159 12.506ZM100.193 20.6254C100.143 21.2503 99.9872 21.7519 99.7486 22.1211C99.4975 22.5026 99.1768 22.8035 98.7856 23.0008C98.3538 23.2183 97.8901 23.3668 97.4116 23.4407C96.8929 23.5205 96.4039 23.5452 95.881 23.5452C94.7291 23.5452 93.8979 23.3865 93.3841 23.0847C92.9027 22.8043 92.6516 22.2847 92.6516 21.4337C92.6516 21.1492 92.6764 20.877 92.7709 20.6378L92.7792 20.6213C92.8447 20.3911 93.0054 20.1527 93.2731 19.9594L93.2814 19.9512C93.5159 19.7621 93.9021 19.6075 94.425 19.4735C94.9388 19.3683 95.6631 19.2893 96.5473 19.2893C96.7984 19.2893 97.0578 19.2934 97.3329 19.3017H97.3702C97.6586 19.3099 97.9627 19.314 98.2793 19.314C98.8677 19.3387 99.5182 19.3642 100.197 19.3896V20.6254H100.193ZM70.313 18.5518C71.2627 18.6735 72.0367 18.9415 72.6003 19.4069C73.1721 19.9298 73.472 20.7052 73.4679 21.7609C73.4679 22.297 73.3568 22.7706 73.1928 23.2146C73.0201 23.676 72.7327 24.0867 72.3574 24.4085C71.9491 24.7642 71.4756 25.0386 70.9627 25.2167H70.9586C70.3826 25.4141 69.7321 25.4938 68.9838 25.4938H61.2909V11.752H68.4078C69.2639 11.752 69.9956 11.8614 70.5923 12.0538H70.6006C71.1931 12.2717 71.6613 12.5224 72.0492 12.862C72.4312 13.2016 72.7154 13.57 72.8837 14.0016C73.0486 14.421 73.1306 14.8436 73.1306 15.2966C73.1306 16.289 72.8588 17.0891 72.345 17.6128L72.3409 17.6178C71.8387 18.1029 71.1641 18.4046 70.313 18.5058V18.5518ZM68.2272 14.0978H63.9403V17.4328H68.7045C69.4197 17.4328 69.8846 17.2527 70.1274 16.9394C70.3702 16.5908 70.5144 16.197 70.5144 15.6979C70.5144 15.4512 70.4688 15.2292 70.415 15.0154C70.3744 14.8526 70.2716 14.7186 70.1191 14.5632C69.9633 14.4292 69.7329 14.3289 69.4197 14.2236C69.0284 14.1343 68.6286 14.0921 68.2272 14.0978ZM68.4617 23.1472C69.21 23.1472 69.786 23.0173 70.2268 22.7665C70.6329 22.5363 70.8517 22.117 70.8517 21.4633C70.8517 20.9354 70.7033 20.521 70.4158 20.1773C70.1481 19.8632 69.5846 19.6741 68.6714 19.6741H63.9395V23.1472H68.4617Z" fill="#0C131D"/>
<path d="M78.1865 20.9979V11.752H75.5372V25.4938H77.0927L85.2297 16.3482V25.4938H87.8749V11.752H86.3203L78.1865 20.9979Z" fill="#0C131D"/>
<path fill-rule="evenodd" clip-rule="evenodd" d="M52.4702 11.35C54.3588 11.35 55.8729 11.7265 56.9626 12.506C58.0698 13.2937 58.6366 14.6134 58.6366 16.3688V25.4938H55.9922V23.2771C55.5513 24.17 54.885 24.836 53.9884 25.2636C53.0669 25.7035 52.0384 25.8959 50.9156 25.8959C50.1747 25.8959 49.5001 25.8416 48.8745 25.6739C48.2529 25.5103 47.706 25.2587 47.2618 24.8944C46.7894 24.5548 46.4314 24.0771 46.1845 23.5205C45.9085 22.9507 45.8016 22.251 45.8016 21.4633C45.8016 20.9946 45.8555 20.4914 46.0196 19.989C46.1914 19.454 46.4954 18.9701 46.9038 18.5814C47.324 18.158 47.8999 17.8266 48.6159 17.5544H48.62C49.3518 17.3028 50.294 17.1688 51.4376 17.1688C51.7012 17.1688 51.9481 17.1729 52.1785 17.182H52.215C52.4337 17.1902 52.6351 17.1943 52.8323 17.1943C53.0462 17.1943 53.2475 17.1984 53.4373 17.2066H53.4539C53.6387 17.2149 53.811 17.219 53.9884 17.219H54.005C54.3505 17.2486 54.6878 17.2741 55.021 17.2741H55.0375L55.1395 17.2815C55.4055 17.3004 55.6864 17.3201 55.9922 17.3242V16.3688C55.9922 15.3805 55.7121 14.7186 55.19 14.333C54.6514 13.935 53.7746 13.6958 52.4702 13.6958C51.9025 13.6958 51.3846 13.7459 50.9686 13.801C50.5368 13.8758 50.1954 14.0066 49.9029 14.2031C49.6112 14.4004 49.3932 14.6471 49.22 14.9735L49.2159 14.9784V14.9866C49.0228 15.309 48.8952 15.7151 48.8173 16.2389L48.7966 16.3811H46.2292L46.25 16.1928C46.3577 15.2925 46.5707 14.5213 46.8997 13.9054C47.2253 13.2937 47.6364 12.7954 48.1593 12.4008L48.1634 12.3975C48.6814 12.0324 49.307 11.7602 50.0388 11.5974C50.7382 11.4297 51.5653 11.35 52.4702 11.35ZM55.5472 22.1211C55.7858 21.7527 55.9383 21.2495 55.9922 20.6254H55.9963V19.3896C55.3168 19.365 54.663 19.3395 54.0787 19.314C53.7622 19.314 53.4572 19.3099 53.1696 19.3017H53.1323C52.8572 19.2934 52.5978 19.2893 52.3467 19.2893C51.4625 19.2893 50.739 19.3683 50.2244 19.4735C49.7023 19.6075 49.3145 19.7621 49.0808 19.9504L49.0725 19.9586C48.8048 20.1518 48.6441 20.3911 48.5786 20.6213L48.5703 20.6378C48.4759 20.8762 48.451 21.1492 48.451 21.4337C48.451 22.2847 48.7021 22.8043 49.1836 23.0847C49.6974 23.3865 50.5285 23.5452 51.6804 23.5452C52.2025 23.5452 52.6923 23.5205 53.2111 23.4407C53.6896 23.3669 54.1533 23.2185 54.5851 23.0008C54.9762 22.8035 55.3002 22.5026 55.5472 22.1211Z" fill="#0C131D"/>
<path d="M138.79 20.9979V11.752H136.144V25.4938H137.696L145.833 16.3482V25.4938H148.478V11.752H146.923L138.79 20.9979Z" fill="#0C131D"/>
</svg>
