<svg width="54" height="55" viewBox="0 0 54 55" fill="none" xmlns="http://www.w3.org/2000/svg">
<path d="M45.4275 9.1665H9C6.525 9.1665 4.5225 11.229 4.5225 13.7498V22.9165C6.9975 22.9165 9 24.979 9 27.4998C9 30.0207 6.9975 32.0832 4.5 32.0832V41.2498C4.5 43.7707 6.525 45.8332 9 45.8332H45C47.475 45.8332 49.5 43.7707 49.5 41.2498V13.7498C49.5 11.229 47.6775 9.1665 45.4275 9.1665ZM45 41.2498H9V35.429C11.6775 33.8478 13.5 30.8686 13.5 27.4998C13.5 24.1082 11.7 21.1519 9.0225 19.5707L9 13.7498H45V41.2498ZM19.9575 35.8873L16.2225 29.2873L18.315 28.7144L21.15 30.9832L26.5275 29.5165L21.1275 19.9832L24.2775 19.1123L33.3 27.6832L38.79 26.1936C39.9375 25.8728 41.13 26.5832 41.445 27.7519C41.7375 28.9207 41.0625 30.1353 39.8925 30.479L19.9575 35.8873Z" fill="#000"/>
</svg>
