<svg width="33" height="33" viewBox="0 0 33 33" fill="none" xmlns="http://www.w3.org/2000/svg">
<path d="M26.125 6.875V26.125H6.875V6.875H26.125ZM26.125 4.125H6.875C5.34875 4.125 4.125 5.3625 4.125 6.875V26.125C4.125 27.6375 5.34875 28.875 6.875 28.875H26.125C27.6375 28.875 28.875 27.6375 28.875 26.125V6.875C28.875 5.3625 27.6375 4.125 26.125 4.125ZM16.5 16.5C14.2312 16.5 12.375 14.6438 12.375 12.375C12.375 10.1062 14.2312 8.25 16.5 8.25C18.7688 8.25 20.625 10.1062 20.625 12.375C20.625 14.6438 18.7688 16.5 16.5 16.5ZM16.5 11C15.7437 11 15.125 11.6188 15.125 12.375C15.125 13.1313 15.7437 13.75 16.5 13.75C17.2563 13.75 17.875 13.1313 17.875 12.375C17.875 11.6188 17.2563 11 16.5 11ZM24.75 24.75H8.25V22.6462C8.25 19.2087 13.7087 17.7238 16.5 17.7238C19.2913 17.7238 24.75 19.2087 24.75 22.6462V24.75ZM11.4263 22H21.5737C20.625 21.23 18.3012 20.46 16.5 20.46C14.6988 20.46 12.3613 21.23 11.4263 22Z" fill="black"/>
</svg>
